<?xml version="1.0" encoding="UTF-8"?><svg id="a" xmlns="http://www.w3.org/2000/svg" viewBox="0 0 264.81 196.34"><defs><style>.b{fill:none;stroke:#ededed;stroke-miterlimit:10;stroke-width:1px;}.c{fill:#ededed;}</style></defs><path class="c" d="M0,174.6c0-12.16,9.58-22.26,21.74-22.26s22.26,10.09,22.26,22.26-10.09,21.74-22.26,21.74S0,186.76,0,174.6Z"/><path class="c" d="M170.03,12.59c6.99-1.04,14.75,1.81,20.44,6.99,8.8,9.06,8.8,23.55-.52,32.87-25.62,36.23-50.98,72.98-76.61,109.21-1.03,1.55,.52,2.33,1.81,1.55l11.65-13.2h47.88c12.94,0,23.29,10.35,23.29,23.29s-10.35,22.78-23.29,22.78c-23.29,0-69.36,.52-96.28,0-9.83,0-18.12-4.66-21.74-13.46-3.36-8.28-1.04-17.6,4.66-25.62,25.36-36.75,50.98-72.98,76.61-109.21,1.03-1.29-.52-2.33-1.81-1.29l-11.13,11.9h-47.88c-12.68,0-23.29-10.09-23.29-23.03s10.61-22.77,23.29-22.77h92.91Z"/><path class="c" d="M252.84,89.71c0-34.42-46.07-33.9-46.07-.52v82.04c0,33.39,46.07,33.64,46.07-.78V89.71Z"/><g><rect class="c" x="252.02" y="3.65" width="13.94" height="4.35" rx="1.55" ry="1.55" transform="translate(438 193.07) rotate(-135)"/><path d="M244.49,20.32c.55,.56,.55,1.46,0,2.02-.56,.56-1.46,.56-2.02,0s-.56-1.46,0-2.02c.56-.55,1.46-.55,2.02,0Z"/><path class="c" d="M257.59,27.27l-4.81,1.29c-2.22-8.17-8.65-14.45-16.53-16.51l1.29-4.83c5,1.33,10.57,.04,14.49-3.88l9.45,9.45c-3.92,3.92-5.21,9.49-3.88,14.49Z"/><line class="b" x1="230.2" y1="34.61" x2="243.48" y2="21.33"/><path class="c" d="M244.49,22.34c-.56,.56-1.46,.56-2.02,0s-.56-1.46,0-2.02c.56-.55,1.46-.55,2.02,0,.55,.56,.55,1.46,0,2.02Z"/></g><path class="c" d="M242.47,22.34c-.56-.56-.56-1.46,0-2.02,.56-.55,1.46-.55,2.02,0,.55,.56,.55,1.46,0,2.02-.56,.56-1.46,.56-2.02,0Z"/><path class="c" d="M253.62,34.86c0,12.68-10.61,23.04-23.04,23.04-13.19,0-23.81-10.36-23.81-23.04s10.62-23.55,23.81-23.55c1.94,0,3.83,.25,5.65,.73l-.43,1.62-5.6,20.93,20.93-5.6,1.64-.44c.55,2,.84,4.11,.84,6.3Z"/></svg>