<?xml version="1.0" encoding="UTF-8"?><svg id="a" xmlns="http://www.w3.org/2000/svg" viewBox="0 0 264.51 196.08"><defs><style>.b{fill:none;stroke:#000;stroke-miterlimit:10;}</style></defs><path d="M0,174.36c0-12.15,9.57-22.24,21.72-22.24s22.24,10.09,22.24,22.24-10.09,21.73-22.24,21.73S0,186.51,0,174.36Z"/><path d="M169.91,12.46c6.98-1.03,14.74,1.81,20.43,6.98,8.79,9.05,8.79,23.53-.52,32.84-25.6,36.21-50.95,72.93-76.55,109.14-1.03,1.55,.52,2.33,1.81,1.55l11.64-13.19h47.85c12.93,0,23.28,10.34,23.28,23.28s-10.34,22.76-23.28,22.76c-23.28,0-69.31,.52-96.21,0-9.83,0-18.1-4.66-21.72-13.45-3.36-8.28-1.03-17.59,4.66-25.6,25.34-36.72,50.95-72.93,76.55-109.14,1.03-1.29-.52-2.33-1.81-1.29l-11.12,11.9h-47.85c-12.67,0-23.28-10.09-23.28-23.02s10.6-22.76,23.28-22.76h92.85Z"/><path d="M252.66,89.53c0-34.4-46.03-33.88-46.03-.52v81.98c0,33.36,46.03,33.62,46.03-.78V89.53Z"/><g><rect x="251.84" y="3.52" width="13.93" height="4.35" rx="1.85" ry="1.85" transform="translate(437.78 192.73) rotate(-135)"/><path d="M244.32,20.19c.55,.56,.55,1.46,0,2.02-.56,.56-1.46,.56-2.02,0s-.56-1.46,0-2.02c.56-.55,1.46-.55,2.02,0Z"/><path d="M257.41,27.13l-4.81,1.29c-2.22-8.16-8.64-14.44-16.52-16.5l1.29-4.83c5,1.33,10.56,.04,14.48-3.88l9.44,9.44c-3.92,3.92-5.21,9.48-3.88,14.48Z"/><line class="b" x1="230.04" y1="34.46" x2="243.31" y2="21.2"/><path d="M244.32,22.21c-.56,.56-1.46,.56-2.02,0s-.56-1.46,0-2.02c.56-.55,1.46-.55,2.02,0,.55,.56,.55,1.46,0,2.02Z"/></g><path d="M242.3,22.21c-.56-.56-.56-1.46,0-2.02,.56-.55,1.46-.55,2.02,0,.55,.56,.55,1.46,0,2.02-.56,.56-1.46,.56-2.02,0Z"/><path d="M253.44,34.72c0,12.67-10.6,23.02-23.02,23.02-13.18,0-23.79-10.35-23.79-23.02s10.61-23.53,23.79-23.53c1.94,0,3.83,.25,5.65,.73l-.43,1.62-5.6,20.92,20.92-5.6,1.64-.44c.55,2,.84,4.11,.84,6.3Z"/></svg>